<?xml version="1.0" encoding="utf-8"?>
<!-- Generator: Adobe Illustrator 16.0.0, SVG Export Plug-In . SVG Version: 6.00 Build 0)  -->
<!DOCTYPE svg PUBLIC "-//W3C//DTD SVG 1.1//EN" "http://www.w3.org/Graphics/SVG/1.1/DTD/svg11.dtd">
<svg version="1.1" id="Layer_1" xmlns="http://www.w3.org/2000/svg" xmlns:xlink="http://www.w3.org/1999/xlink" x="0px" y="0px"
	 width="1920px" height="1024px" viewBox="0 0 1920 1024" enable-background="new 0 0 1920 1024" xml:space="preserve">
<path fill="#FFFFFF" d="M-668.999,633.305c0,79.28,64.501,143.781,143.78,143.781c74.475,0,135.891-56.916,143.077-129.534
	c11.585,3.608,24.938,5.464,40.094,5.464h329.236c9.581,70.614,69.628,124.07,142.411,124.07s132.838-53.456,142.419-124.07h51.624
	c18.396,0,33.362-14.967,33.362-33.362v-40.822c0-80.767-36.078-153.26-92.971-202.207v-35.327h46.803
	c16.266,0,29.503-13.229,29.503-29.503v-15.945c0-15.037-11.319-27.46-25.879-29.26c-3.139-74.45-61.08-134.975-134.435-142.129
	v-15.327c0-8.063-6.536-14.599-14.606-14.599c-8.063,0-14.599,6.536-14.599,14.599v15.335
	c-68.235,6.661-123.132,59.468-133.003,126.724c-3.687-8.838-12.422-15.061-22.583-15.061h-95.796
	c-29.347,0-53.988,13.949-71.249,40.337c-12.626,19.311-17.722,39.71-19.334,47.585c-0.971,4.759,0.234,9.651,3.311,13.408
	c3.068,3.758,7.616,5.918,12.47,5.918h6.764l32.735,89.198c11.037,30.059,7.068,62.583-10.872,89.229
	c-17.425,25.887-45.097,41.323-75.906,42.364c-1.167,0.039-2.341,0.063-3.522,0.063h-79.602c-15.421,0-28.72-10.99-31.632-26.129
	c-0.07-0.36-0.156-0.721-0.25-1.072c-26.865-98.803,16.273-236.58,35.264-289.292h0.055c4.094,0,7.945-1.025,11.343-2.817
	l69.675,13.119c0.924,0.18,1.848,0.258,2.756,0.258c6.99,0,13.205-4.963,14.544-12.078c1.519-8.039-3.773-15.788-11.82-17.307
	l-62.137-11.695v-25.926c0-5.636-1.425-10.99-3.961-15.687l14.818-17.988l66.771,0.493c19.483,0,35.249-15.758,35.249-35.139V107.74
	c0-12.524-10.169-22.716-22.686-22.771l-63.992-0.643c-7.655-0.094-14.989,3.304-19.905,9.269l-30.818,37.386
	c-3.938,4.79-4.791,11.515-2.168,17.127c0.806,1.729,1.926,3.24,3.232,4.548l-4.775,5.801l3.265,0.821l-123.483-31.029
	c-7.781-1.941-15.867-0.242-22.184,4.689c-6.325,4.931-9.949,12.352-9.949,20.375v68.596c0,14.246,11.585,25.839,25.832,25.839
	h31.115l-27.522,48.329c-3.984,7.006-1.542,15.921,5.464,19.913c7.014,3.984,15.922,1.543,19.914-5.463l35.749-62.787h34.661
	c-21.088,61.033-59.796,195.608-32.618,296.454c5.769,28.571,30.998,49.244,60.195,49.244h79.609c1.503,0,3.006-0.031,4.501-0.078
	c40.289-1.362,76.422-21.495,99.146-55.24c22.896-33.996,28.148-77.214,14.059-115.609l-29.801-81.205H90.266
	c104.978,0,194.254,68.454,225.565,163.068c-6.575-8.047-13.871-15.577-21.855-22.481c-6.098-5.268-15.319-4.603-20.595,1.495
	c-5.276,6.098-4.604,15.327,1.495,20.595c33.636,29.089,52.923,71.249,52.923,115.672c0,1.722-1.049,3.201-2.536,3.835
	c-0.501,0.212-1.041,0.329-1.62,0.329H-53.406v-22.92c0-73.941,60.156-134.098,134.098-134.098h94.247
	c15.616,0,31.021,2.341,45.769,6.959c7.703,2.419,15.891-1.871,18.302-9.565c2.411-7.695-1.871-15.891-9.565-18.302
	c-17.581-5.503-35.914-8.297-54.497-8.297H80.691c-90.043,0-163.303,73.252-163.303,163.303v22.912h-259.437
	c-8.345,0-17.973-0.501-27.218-2.81c2.959-102.06-68.477-180.423-94.34-205.362l25.604-44.971
	c3.992-7.006,1.542-15.922-5.464-19.914s-15.922-1.55-19.914,5.464l-26.739,46.959c-0.392-0.023-0.791-0.031-1.183-0.047
	c-0.877-0.047-1.753-0.078-2.622-0.109c-1.064-0.032-2.129-0.063-3.193-0.079c-0.869-0.016-1.738-0.016-2.606-0.016
	c-1.065,0-2.122,0.016-3.179,0.031c-0.86,0.023-1.722,0.047-2.583,0.079c-1.049,0.039-2.098,0.086-3.139,0.148
	c-0.869,0.047-1.73,0.102-2.592,0.164c-1.033,0.078-2.059,0.164-3.084,0.259c-0.86,0.078-1.729,0.156-2.591,0.25
	c-1.01,0.109-2.02,0.243-3.029,0.368c-0.861,0.109-1.729,0.219-2.583,0.345c-1.002,0.148-1.988,0.305-2.982,0.47
	c-0.861,0.141-1.723,0.281-2.575,0.438c-0.979,0.181-1.949,0.376-2.92,0.572c-0.861,0.172-1.722,0.336-2.575,0.524
	c-0.955,0.211-1.895,0.446-2.842,0.665c-0.861,0.211-1.729,0.407-2.583,0.626c-0.924,0.243-1.84,0.501-2.755,0.76
	c-0.869,0.234-1.738,0.47-2.592,0.72c-0.893,0.267-1.776,0.556-2.653,0.838c-0.877,0.273-1.753,0.532-2.614,0.83
	c-0.83,0.273-1.645,0.579-2.466,0.868c-2.231,0.799-4.446,1.636-6.63,2.528c-0.337,0.142-0.689,0.267-1.025,0.407
	c-0.986,0.407-1.949,0.846-2.92,1.276c-0.697,0.313-1.394,0.603-2.074,0.916c-0.939,0.43-1.855,0.892-2.771,1.338
	c-0.713,0.345-1.433,0.682-2.129,1.033c-0.9,0.462-1.793,0.939-2.678,1.417c-0.712,0.376-1.424,0.744-2.129,1.127
	c-0.869,0.485-1.729,0.986-2.591,1.487c-0.704,0.407-1.417,0.814-2.113,1.237c-0.838,0.501-1.668,1.033-2.497,1.558
	c-0.705,0.438-1.401,0.877-2.098,1.323c-0.814,0.54-1.613,1.088-2.419,1.636c-0.689,0.47-1.378,0.939-2.06,1.425
	c-0.79,0.556-1.573,1.127-2.348,1.698c-0.674,0.501-1.354,1.002-2.02,1.519c-0.76,0.579-1.511,1.174-2.263,1.77
	c-0.665,0.532-1.33,1.072-1.988,1.612c-0.728,0.603-1.456,1.221-2.176,1.84c-0.649,0.563-1.308,1.135-1.949,1.706
	c-0.696,0.626-1.394,1.26-2.082,1.895c-0.642,0.603-1.284,1.205-1.91,1.815c-0.673,0.643-1.339,1.292-1.996,1.949
	c-0.634,0.635-1.253,1.276-1.879,1.926c-0.634,0.657-1.26,1.315-1.878,1.98c-0.627,0.673-1.237,1.362-1.848,2.051
	c-0.603,0.666-1.197,1.339-1.785,2.02c-0.61,0.713-1.213,1.448-1.808,2.177c-0.563,0.673-1.12,1.346-1.668,2.035
	c-0.61,0.767-1.197,1.55-1.792,2.332c-0.517,0.674-1.033,1.347-1.534,2.027c-0.61,0.838-1.198,1.684-1.793,2.536
	c-0.462,0.658-0.932,1.308-1.386,1.973c-0.626,0.924-1.229,1.871-1.831,2.818c-0.392,0.61-0.799,1.213-1.183,1.832
	c-0.681,1.104-1.338,2.23-1.996,3.357c-0.281,0.485-0.579,0.955-0.853,1.44c-0.924,1.629-1.824,3.28-2.693,4.955
	c-4.548,8.775-4.219,19.084,0.869,27.577c3.655,6.099,9.308,10.474,15.859,12.517C-648.89,548.765-668.999,589.383-668.999,633.305z
	 M-403.418,218.534h-25.934v-60.916l25.934,6.521V218.534z M-262.557,128.445l12.281-14.896l55.984,0.556v8.869
	c0,3.271-2.669,5.934-5.941,5.934L-262.557,128.445z M-374.213,218.534v-47.061l64.165,16.125c1.698,0.423,2.881,1.941,2.881,3.694
	v27.241H-374.213z M-9.492,312.092h-147.805c7.444-19.585,23.719-46.764,56.744-46.764h91.061v46.466V312.092z M211.549,341.297
	h23.28v13.464C227.322,349.9,219.557,345.399,211.549,341.297z M285.247,266.338H45.607c3.429-63.107,55.859-113.393,119.82-113.393
	C229.381,152.946,281.811,203.231,285.247,266.338z M20.003,312.092c-0.164,0-0.298-0.134-0.298-0.298v-15.953
	c0-0.164,0.134-0.297,0.298-0.297h290.842c0.164,0,0.297,0.133,0.297,0.297v15.953c0,0.164-0.133,0.298-0.297,0.298H20.003z
	 M184.911,653.016c-8.157,22.802-30.043,39.029-55.312,39.029c-25.268,0-47.154-16.228-55.311-39.029H184.911z M16.723,653.016
	h27.21c9.025,39.186,44.321,68.227,85.667,68.227c41.354,0,76.642-29.041,85.676-68.227h27.201
	c-9.3,54.27-56.259,94.864-112.877,94.864S26.03,707.293,16.723,653.016z M-403.05,592.984
	c-5.604-14.669-14.56-27.765-25.871-37.854c-0.203-0.181-0.407-0.345-0.603-0.524c-0.102-0.087-0.195-0.181-0.29-0.267
	c-1.417-1.244-2.841-2.466-4.281-3.655c-0.259-0.22-0.524-0.431-0.791-0.649c-0.517-0.431-1.049-0.846-1.581-1.269
	c-0.783-0.634-1.573-1.276-2.372-1.895c-0.54-0.423-1.072-0.845-1.612-1.26c-0.478-0.368-0.955-0.713-1.433-1.072
	c-0.454-0.337-0.9-0.666-1.354-1.002c-0.955-0.713-1.909-1.425-2.88-2.114c-0.799-0.571-1.604-1.119-2.403-1.675
	c-1.119-0.768-2.23-1.542-3.351-2.294c-0.774-0.509-1.55-1.002-2.325-1.495c-1.166-0.759-2.332-1.519-3.506-2.246
	c-0.744-0.462-1.496-0.9-2.247-1.347c-1.213-0.735-2.427-1.472-3.647-2.176c-0.721-0.415-1.44-0.807-2.16-1.214
	c-1.261-0.704-2.529-1.416-3.797-2.098c-0.674-0.368-1.362-0.712-2.043-1.072c-1.315-0.688-2.631-1.378-3.953-2.043
	c-0.635-0.321-1.276-0.618-1.918-0.932c-1.37-0.665-2.74-1.339-4.117-1.98c-0.588-0.273-1.183-0.532-1.777-0.806
	c-1.425-0.65-2.85-1.3-4.273-1.91c-0.549-0.235-1.088-0.462-1.637-0.689c-1.479-0.626-2.959-1.252-4.438-1.854
	c-0.486-0.196-0.979-0.376-1.465-0.571c-1.533-0.604-3.068-1.206-4.61-1.777c-0.446-0.172-0.892-0.321-1.338-0.485
	c-1.573-0.579-3.147-1.158-4.721-1.698c-0.407-0.142-0.813-0.274-1.221-0.415c-1.612-0.548-3.226-1.088-4.83-1.604
	c-0.36-0.11-0.72-0.22-1.08-0.329c-1.651-0.524-3.296-1.041-4.939-1.526c-0.306-0.086-0.603-0.172-0.908-0.259
	c-1.69-0.493-3.39-0.979-5.072-1.44c-0.266-0.07-0.524-0.133-0.782-0.203c-1.723-0.47-3.444-0.924-5.159-1.354
	c-0.211-0.047-0.423-0.102-0.642-0.148c-1.746-0.438-3.491-0.861-5.229-1.261c-0.188-0.039-0.384-0.078-0.572-0.125
	c-1.753-0.399-3.499-0.782-5.236-1.15c-0.156-0.031-0.321-0.063-0.485-0.102c-1.753-0.36-3.499-0.721-5.237-1.049
	c-0.141-0.023-0.281-0.047-0.43-0.078c-1.754-0.329-3.491-0.65-5.222-0.947c-0.078-0.016-0.156-0.023-0.234-0.039
	c-1.777-0.306-3.546-0.596-5.3-0.869c-0.102-0.016-0.195-0.031-0.297-0.047c-1.723-0.267-3.437-0.517-5.128-0.752
	c-0.125-0.016-0.242-0.031-0.368-0.047c-1.667-0.234-3.318-0.446-4.946-0.649c-0.134-0.016-0.259-0.031-0.392-0.047
	c-1.621-0.196-3.218-0.384-4.799-0.556c-0.156-0.016-0.305-0.023-0.462-0.039c-1.55-0.165-3.076-0.321-4.579-0.462
	c-0.25-0.023-0.493-0.048-0.743-0.071c-1.401-0.125-2.803-0.25-4.165-0.352c-0.258-0.023-0.501-0.039-0.759-0.055
	c-1.347-0.11-2.685-0.204-3.992-0.29c-0.298-0.023-0.579-0.039-0.877-0.055c-1.245-0.078-2.489-0.156-3.702-0.22
	c-0.493-0.023-0.963-0.047-1.456-0.07c-0.986-0.047-1.98-0.094-2.943-0.133c-0.9-0.039-1.77-0.063-2.646-0.094
	c-0.525-0.016-1.057-0.039-1.566-0.047c-1.377-0.039-2.724-0.07-4.031-0.094c0.446-0.854,0.924-1.684,1.401-2.513
	c0.259-0.462,0.501-0.924,0.768-1.378c0.423-0.729,0.868-1.433,1.307-2.152c0.345-0.557,0.674-1.12,1.025-1.668
	c0.438-0.688,0.893-1.354,1.347-2.035c0.376-0.556,0.736-1.119,1.119-1.667c0.462-0.666,0.947-1.323,1.425-1.98
	c0.384-0.532,0.768-1.072,1.167-1.604c0.492-0.65,1.002-1.292,1.502-1.934c0.407-0.509,0.807-1.025,1.214-1.534
	c0.517-0.635,1.049-1.253,1.581-1.879c0.423-0.485,0.83-0.986,1.261-1.472c0.54-0.61,1.104-1.213,1.659-1.824
	c0.431-0.462,0.861-0.939,1.299-1.4c0.572-0.596,1.151-1.183,1.738-1.77c0.438-0.446,0.885-0.893,1.339-1.339
	c0.587-0.579,1.197-1.135,1.8-1.698c0.462-0.431,0.916-0.861,1.386-1.284c0.61-0.556,1.237-1.096,1.871-1.636
	c0.47-0.407,0.939-0.822,1.425-1.221c0.634-0.532,1.283-1.049,1.934-1.565c0.484-0.392,0.963-0.783,1.455-1.159
	c0.658-0.509,1.331-1.01,1.996-1.503c0.502-0.368,1.002-0.743,1.512-1.104c0.673-0.485,1.361-0.955,2.043-1.425
	c0.516-0.353,1.033-0.704,1.55-1.049c0.696-0.454,1.394-0.9,2.09-1.339c0.532-0.336,1.072-0.673,1.612-1.002
	c0.697-0.422,1.409-0.845,2.121-1.252c0.548-0.321,1.104-0.642,1.668-0.955c0.712-0.399,1.424-0.783,2.145-1.166
	c0.579-0.306,1.15-0.611,1.729-0.9c0.721-0.376,1.44-0.729,2.169-1.08c0.603-0.298,1.197-0.579,1.8-0.861
	c0.729-0.337,1.448-0.665,2.177-0.986c0.626-0.274,1.244-0.54,1.87-0.807c0.729-0.305,1.456-0.603,2.192-0.899
	c0.642-0.259,1.283-0.501,1.934-0.752c0.728-0.273,1.455-0.54,2.191-0.807c0.665-0.234,1.347-0.469,2.02-0.696
	c0.721-0.25,1.448-0.493,2.176-0.72c0.697-0.22,1.394-0.431,2.099-0.643c0.72-0.211,1.44-0.423,2.16-0.626
	c0.728-0.203,1.464-0.392,2.199-0.587c0.705-0.18,1.409-0.368,2.122-0.54c0.759-0.181,1.526-0.353,2.285-0.517
	c0.705-0.157,1.401-0.313,2.105-0.454c0.783-0.164,1.582-0.306,2.372-0.454c0.688-0.125,1.378-0.251,2.066-0.368
	c0.822-0.141,1.651-0.258,2.481-0.376c0.674-0.102,1.339-0.203,2.02-0.289c0.854-0.117,1.707-0.203,2.567-0.298
	c0.658-0.078,1.315-0.156,1.98-0.219c0.885-0.078,1.777-0.141,2.67-0.212c0.642-0.047,1.275-0.102,1.917-0.141
	c0.924-0.055,1.848-0.086,2.771-0.117c0.626-0.023,1.244-0.055,1.871-0.07c0.947-0.023,1.91-0.023,2.865-0.023
	c0.603-0.008,1.205-0.016,1.808-0.008c0.979,0.016,1.957,0.047,2.936,0.078c0.595,0.023,1.189,0.031,1.784,0.055
	c0.979,0.047,1.957,0.117,2.936,0.188c0.611,0.039,1.214,0.07,1.816,0.118c0.055,0.008,0.109,0.016,0.164,0.016
	c15.602,14.474,82.631,81.448,89.323,168.618c-0.109-0.164-0.219-0.337-0.329-0.509c-0.579-0.955-1.135-1.926-1.651-2.943
	c-0.109-0.211-0.227-0.431-0.329-0.649c-0.047-0.094-0.094-0.188-0.141-0.282c-0.595-1.229-1.158-2.481-1.659-3.804
	C-403.058,592.999-403.058,592.991-403.05,592.984z M-543.332,666.088c6.442,3.365,13.44,5.072,20.501,5.072
	c4.47,0,8.947-0.689,13.331-2.059c11.311-3.546,20.563-11.288,26.059-21.793l15.076-28.861c1.245,4.791,1.887,9.762,1.887,14.857
	c0,32.392-26.349,58.74-58.74,58.74c-32.391,0-58.739-26.349-58.739-58.74c0-24.329,14.865-45.244,35.984-54.152l-14.137,27.053
	C-573.445,627.888-565.015,654.753-543.332,666.088z M-536.225,619.732l27.594-52.814c0.109-0.203,0.219-0.399,0.32-0.61
	l10.732-20.532c0.579,0.259,1.158,0.517,1.737,0.783c1.308,0.595,2.614,1.197,3.898,1.815c0.704,0.337,1.409,0.666,2.113,1.01
	c1.801,0.885,3.585,1.793,5.339,2.725c0.462,0.242,0.932,0.485,1.394,0.735c1.949,1.049,3.874,2.121,5.761,3.218
	c0.164,0.094,0.321,0.188,0.478,0.281c2.059,1.206,4.078,2.435,6.066,3.703l-10.497,20.078c-0.016,0.031-0.031,0.063-0.047,0.094
	l-27.992,53.565c-1.879,3.593-5.041,6.239-8.908,7.452c-3.866,1.213-7.977,0.854-11.569-1.025
	C-537.219,636.334-540.099,627.145-536.225,619.732z M-639.794,633.297c0-47.271,29.222-89.761,73.065-106.803
	c12.508,1.801,26.724,4.65,41.51,9.112l-5.182,9.918c-46.09,2.692-82.763,41.025-82.763,87.772
	c0,48.493,39.452,87.945,87.944,87.945c48.494,0,87.945-39.452,87.945-87.945c0-16.861-4.932-33.409-14.012-47.53l4.039-7.741
	c4.384,4.172,8.235,8.915,11.39,14.121c2.012,3.318,3.742,6.825,5.183,10.458c0.102,0.273,0.227,0.532,0.336,0.806
	c0.008,0.031,0.023,0.055,0.031,0.086c0.501,1.308,1.041,2.592,1.598,3.852c0.148,0.329,0.313,0.658,0.461,0.979
	c0.047,0.102,0.095,0.204,0.142,0.306c0.188,0.415,0.376,0.829,0.579,1.236c0.219,0.462,0.462,0.916,0.688,1.378
	c0.157,0.298,0.321,0.595,0.478,0.893c0.36,0.681,0.721,1.361,1.104,2.035c0.376,0.657,0.768,1.291,1.159,1.934
	c0.47,0.774,0.963,1.534,1.464,2.285c0.908,1.37,1.854,2.693,2.849,3.977c0.173,0.228,0.345,0.446,0.524,0.674
	c2.592,3.287,5.464,6.309,8.611,9.057c0.008,0.406,0.008,0.806,0.008,1.205c0,63.178-51.397,114.575-114.576,114.575
	C-588.396,747.88-639.794,696.483-639.794,633.297z"/>
</svg>
